<svg xmlns="http://www.w3.org/2000/svg" xmlns:xlink="http://www.w3.org/1999/xlink" version="1.1" id="Layer_1" x="0px" y="0px" viewBox="0 0 100 100" enable-background="new 0 0 100 100" xml:space="preserve" height="100px" width="100px">
<g>
	<path fill="#000000" d="M33.552,58.407c-0.068,0-0.138-0.01-0.206-0.032c-0.36-0.114-0.559-0.498-0.446-0.858   c0.838-2.642,0.043-4.368-2.359-5.13c-1.138-0.36-2.092-0.376-2.836-0.05c-0.873,0.384-1.539,1.281-1.977,2.667   c-0.113,0.36-0.499,0.561-0.858,0.445c-0.36-0.114-0.559-0.498-0.446-0.858c0.563-1.778,1.483-2.957,2.733-3.506   c1.058-0.464,2.335-0.465,3.798-0.001c3.13,0.992,4.315,3.487,3.251,6.846C34.112,58.221,33.842,58.407,33.552,58.407z"/>
</g>
<g>
	<path fill="#000000" d="M57.47,65.745c-0.068,0-0.138-0.01-0.206-0.032c-0.36-0.114-0.559-0.498-0.446-0.858   c0.813-2.568,0.042-4.128-2.427-4.912c-2.406-0.761-4.046,0.194-4.883,2.835c-0.115,0.36-0.5,0.561-0.859,0.445   c-0.361-0.114-0.56-0.498-0.446-0.859c1.065-3.357,3.468-4.715,6.6-3.725c3.221,1.021,4.369,3.313,3.319,6.628   C58.03,65.559,57.761,65.745,57.47,65.745z"/>
</g>
<path fill="#000000" d="M46.366,70.444l-7.428-2.342l-7.045-2.232c-0.25-0.081-0.516-0.007-0.692,0.171  c-0.061,0.059-0.112,0.13-0.149,0.212c-0.204,0.462-0.385,0.938-0.534,1.412c-0.07,0.223-0.12,0.446-0.179,0.67  c-0.035,0.134-0.077,0.269-0.108,0.403c-0.056,0.244-0.097,0.488-0.139,0.732c-0.02,0.12-0.045,0.24-0.062,0.359  c-0.038,0.267-0.064,0.532-0.086,0.797c-0.007,0.084-0.015,0.169-0.02,0.253c-0.018,0.292-0.025,0.58-0.023,0.868  c0,0.04,0.001,0.079,0.002,0.119c0.027,1.564,0.354,3.056,0.974,4.382c0.038,0.082,0.075,0.163,0.115,0.243  c0.047,0.093,0.084,0.193,0.134,0.284c0.014,0.026,0.04,0.041,0.057,0.064c0.928,1.666,2.321,2.93,4.09,3.49  c0.655,0.207,1.338,0.312,2.032,0.312c3.257,0,6.409-2.274,8.227-5.737c0.001-0.002,0.003-0.003,0.004-0.005  c0.006-0.011,0.01-0.022,0.016-0.033c0.168-0.322,0.324-0.655,0.468-0.997c0.013-0.03,0.026-0.06,0.039-0.09  c0.144-0.351,0.28-0.708,0.397-1.077c0.149-0.468,0.276-0.96,0.376-1.462c0.018-0.088,0.016-0.176,0-0.26  C46.792,70.736,46.618,70.523,46.366,70.444z M37.308,79.275c-0.553,0-1.098-0.084-1.619-0.248  c-1.287-0.408-2.328-1.283-3.081-2.448c1.573-1.387,3.934-2.871,6.868-2.871c1.485,0,3,0.407,4.512,1.167  C42.379,77.555,39.872,79.275,37.308,79.275z M45.154,72.281c-0.145,0.463-0.321,0.92-0.523,1.365  c-1.713-0.867-3.445-1.305-5.155-1.305c-3.189,0-5.76,1.505-7.517,2.986c-0.014-0.034-0.028-0.067-0.041-0.101  c-0.078-0.197-0.148-0.399-0.212-0.605c-0.02-0.065-0.04-0.129-0.059-0.195c-0.061-0.215-0.114-0.434-0.161-0.657  c-0.012-0.059-0.026-0.117-0.037-0.176c-0.045-0.238-0.08-0.479-0.108-0.723c-0.006-0.049-0.013-0.097-0.018-0.146  c-0.026-0.254-0.04-0.512-0.047-0.772c-0.001-0.045-0.005-0.089-0.006-0.134c-0.004-0.252,0.004-0.507,0.017-0.763  c0.003-0.058,0.003-0.115,0.007-0.173c0.014-0.215,0.041-0.431,0.068-0.646c0.013-0.104,0.02-0.206,0.036-0.31  c0.018-0.119,0.045-0.237,0.067-0.356c0.091-0.499,0.207-1,0.366-1.502c0.072-0.229,0.155-0.463,0.244-0.697l6.425,2.026  l6.855,2.172C45.294,71.809,45.227,72.047,45.154,72.281z"/>
<ellipse transform="matrix(0.9677 0.2521 -0.2521 0.9677 20.524 -11.5377)" cx="55.284" cy="74.318" rx="5.185" ry="3.179"/>
<ellipse transform="matrix(0.9209 0.3899 -0.3899 0.9209 26.3332 -3.9744)" cx="22.957" cy="62.88" rx="5.185" ry="3.179"/>
<path fill="#000000" d="M70.681,12.844c-0.525,0.413-0.988,0.9-1.391,1.442C69.726,13.797,70.191,13.315,70.681,12.844z"/>
<path fill="#000000" d="M91.146,16.81c-0.334-0.209-7.561-4.694-13.74-5.499c1.502-0.829,3.019-1.391,4.401-1.514  c0.782-0.07,1.362-0.762,1.293-1.544c-0.066-0.739-0.676-1.297-1.418-1.297c-0.014,0-0.113,0.004-0.126,0.006  c-3.303,0.292-7.061,2.455-10.089,5.152c-0.198-0.115-0.393-0.234-0.596-0.341c-2.483-1.306-5.283-1.969-8.322-1.969  c-10.179,0-21.25,7.365-27.101,17.972c-8.262,2.816-15.095,8.724-19.282,16.686c-4.244,8.069-5.211,17.194-2.724,25.695  c2.51,8.583,8.299,15.626,16.297,19.832c4.835,2.543,10.001,3.833,15.349,3.833c0.001,0,0,0,0.001,0  c12.427,0,23.866-7.071,29.851-18.452c4.187-7.962,5.182-16.939,2.821-25.343c3.866-7.711,4.805-16.273,3.23-23.515l0,0  c1.246-0.562,2.735-1.685,4.684-4.073c1.323-1.62,4.95-3.779,5.359-4.019c0.013-0.008,0.022-0.02,0.034-0.028  c0.011-0.006,0.028-0.01,0.038-0.015c0.28-0.158,0.457-0.452,0.464-0.773C91.578,17.282,91.417,16.981,91.146,16.81z M86.783,16.475  c-0.756-0.028-1.502-0.042-2.233-0.042c-0.799,0-1.564,0.021-2.309,0.052c-0.099,0.004-0.201,0.007-0.299,0.012  c-0.701,0.033-1.375,0.081-2.027,0.139c-0.117,0.01-0.233,0.021-0.348,0.032c-0.639,0.061-1.257,0.132-1.849,0.213  c-0.096,0.013-0.189,0.027-0.285,0.041c-0.604,0.087-1.188,0.181-1.743,0.285c-0.037,0.007-0.071,0.014-0.108,0.021  c-0.556,0.106-1.086,0.219-1.593,0.338c-0.043,0.01-0.088,0.02-0.131,0.03c-0.502,0.12-0.976,0.246-1.431,0.375  c-0.069,0.02-0.138,0.039-0.205,0.058c-0.438,0.128-0.853,0.258-1.247,0.39c-0.061,0.021-0.12,0.041-0.18,0.062  c-0.393,0.135-0.767,0.271-1.115,0.407c-0.009,0.003-0.02,0.007-0.029,0.011c-0.006-0.143,0.011-0.285,0.016-0.427  c1.166-1.861,3.011-3.829,5.086-5.423c0.277-0.028,0.56-0.051,0.861-0.051C79.204,12.998,83.736,14.931,86.783,16.475z   M81.683,7.868c0.267,0,0.486,0.201,0.51,0.466c0.025,0.281-0.184,0.53-0.466,0.555c-4.7,0.416-10.849,5.474-13.206,9.718  c-0.132,0.236-0.422,0.342-0.697,0.2c-0.246-0.137-0.336-0.449-0.198-0.696C70.111,13.634,76.478,8.326,81.683,7.868z   M75.084,49.257c-0.164,0.316-0.198,0.682-0.097,1.023c2.35,7.866,1.475,16.325-2.466,23.818  c-5.511,10.48-16.022,16.99-27.431,16.99c-4.901,0-9.637-1.184-14.077-3.519C15.89,79.616,10.433,61.24,18.587,45.735  c3.941-7.493,10.414-13.009,18.226-15.53c0.339-0.109,0.621-0.346,0.787-0.659c5.239-9.854,15.732-17.006,24.949-17.006  c2.524,0,4.836,0.538,6.884,1.58l0,0c-1.066,1.176-1.963,2.389-2.607,3.549c-0.381,0.686-0.133,1.555,0.583,1.951  c0.203,0.107,0.432,0.163,0.661,0.163c-0.055,0-0.108-0.014-0.162-0.02c0.028,0.188,0.057,0.377,0.1,0.564  c0.003,0.019,0.012,0.049,0.02,0.077v0c0,0.002,0.001,0.003,0.001,0.005c0.003,0.012,0.006,0.024,0.009,0.033  c0.001,0.002,0.002,0.003,0.003,0.006c0.986,4.022,5.431,6.823,8.826,6.823c0.299,0,0.593-0.021,0.881-0.062  c0.173-0.025,0.344-0.043,0.517-0.062C79.725,33.953,78.803,42.107,75.084,49.257z M84.263,21.287  c-3.026,3.708-4.512,3.867-6.085,4.036c-0.231,0.025-0.461,0.05-0.692,0.083c-0.201,0.029-0.408,0.043-0.618,0.043  c-2.505,0-5.756-1.982-6.836-4.738c0.029-0.012,0.059-0.024,0.089-0.036c0.329-0.132,0.677-0.266,1.052-0.398  c0.037-0.013,0.076-0.026,0.113-0.038c0.399-0.139,0.819-0.277,1.27-0.411c0.002-0.001,0.004-0.001,0.006-0.002  c0.446-0.133,0.923-0.261,1.421-0.384c0.053-0.013,0.104-0.027,0.158-0.04c0.48-0.117,0.988-0.227,1.515-0.331  c0.082-0.016,0.163-0.033,0.247-0.049c0.525-0.1,1.076-0.192,1.649-0.277c0.097-0.014,0.196-0.028,0.294-0.042  c0.582-0.081,1.188-0.154,1.818-0.215c0.099-0.01,0.2-0.018,0.299-0.027c0.653-0.059,1.328-0.108,2.034-0.142  c0.074-0.003,0.15-0.005,0.225-0.009c0.748-0.033,1.52-0.053,2.328-0.053c0.999,0,2.029,0.031,3.075,0.083  c0.043,0.002,0.087,0.007,0.13,0.009C86.497,19.211,85.068,20.301,84.263,21.287z"/>
</svg>